HIERARCHY
ROOT pelvis
{
  OFFSET 0 100 0
  CHANNELS 6 Xposition Yposition Zposition Zrotation Xrotation Yrotation
  JOINT pelvis_right_femur
  {
    OFFSET -10.78128 -3.44521 -0.5502486
    CHANNELS 3 Zrotation Xrotation Yrotation
    JOINT right_femur_tibia
    {
      OFFSET -0.8047443 -44.0398 -0.1307829
      CHANNELS 3 Zrotation Xrotation Yrotation
      JOINT right_tibia_foot
      {
        OFFSET 3.006224 -47.83518 -5
        CHANNELS 3 Zrotation Xrotation Yrotation
        End Site
        {
          OFFSET 0 -5 15
        }
      }
    }
  }
  JOINT pelvis_left_femur
  {
    OFFSET 10.78128 -3.44521 -0.5502486
    CHANNELS 3 Zrotation Xrotation Yrotation
    JOINT left_femur_tibia
    {
      OFFSET 0.8047443 -44.0398 -0.1307829
      CHANNELS 3 Zrotation Xrotation Yrotation
      JOINT left_tibia_foot
      {
        OFFSET -4.370144 -48.10324 -4.275266
        CHANNELS 3 Zrotation Xrotation Yrotation
        End Site
        {
          OFFSET 0 -5 15
        }
      }
    }
  }
  JOINT pelvis_spine1
  {
    OFFSET 0 6.468898 -3.129235
    CHANNELS 3 Zrotation Xrotation Yrotation
    JOINT spine1
    {
      OFFSET 0 23.15396 4.99043
      CHANNELS 3 Zrotation Xrotation Yrotation
      JOINT spine2
      {
        OFFSET 0 20.79997 -5.064912
        CHANNELS 3 Zrotation Xrotation Yrotation
        JOINT neck
        {
          OFFSET 0 14.38658 9.616178
          CHANNELS 3 Zrotation Xrotation Yrotation
          End Site
          {
            OFFSET 0 20 0
          }
        }
      }
      JOINT right_manubrium
      {
        OFFSET -5.722621 16.35077 3.967754
        CHANNELS 3 Zrotation Xrotation Yrotation
        JOINT right_clavicle
        {
          OFFSET -13.16364 1.694482 -4.693211
          CHANNELS 3 Zrotation Xrotation Yrotation
          JOINT right_humerus
          {
            OFFSET -28.5034 -0.3100689 -2.792744
            CHANNELS 3 Zrotation Xrotation Yrotation
            JOINT right_radius
            {
              OFFSET -25.15693 0.02248979 -1.271978
              CHANNELS 3 Zrotation Xrotation Yrotation
              End Site
              {
                OFFSET -15 0 0
              }
            }
          }
        }
      }
      JOINT left_manubrium
      {
        OFFSET 5.722621 16.35077 3.967754
        CHANNELS 3 Zrotation Xrotation Yrotation
        JOINT left_clavicle
        {
          OFFSET 13.16364 1.694482 -4.693211
          CHANNELS 3 Zrotation Xrotation Yrotation
          JOINT left_humerus
          {
            OFFSET 29.39168 -1.063119 -2.237045
            CHANNELS 3 Zrotation Xrotation Yrotation
            JOINT left_radius
            {
              OFFSET 24.59957 -0.9528479 0.9047498
              CHANNELS 3 Zrotation Xrotation Yrotation
              End Site
              {
                OFFSET 15 -0 -0
              }
            }
          }
        }
      }
    }
  }
}
MOTION
Frames: 15
Frame Time: 0.0416666666667
0 103.5113 0 0.7040687 -0.837133 0.7151072 1.903949 -22.39388 4.797109 -0 33.55728 -0 -2.8206 -8.077137 -4.157982 -6.290476 11.9521 -17.17849 0 -1.075613 0 2.442738 -21.559 20.00684 -3.821813 -1.013055 3.045791 2.250404 8.001053 -7.594159 1.236464 21.79254 7.265019 3.054531 -22.45634 8.908087 5.027554 -17.40697 10.59551 85.44172 33.05524 -17.89328 -0 0 14.28147 -12.53799 9.154767 7.938598 6.023711 -19.06153 -2.469189 -89.23126 28.14658 16.0553 0 0 -19.13133 2.468428 12.22391 10.84662
0.4798511 102.4517 3.613869 0.7318816 -0.8066952 1.420589 1.899059 -22.31051 4.908835 -0 33.76825 -0 -2.697793 -8.20861 -4.202369 -6.311243 11.86413 -17.20735 0 -0.8625543 0 2.321375 -21.53596 19.99494 -3.848441 -0.9767526 3.065366 2.251712 7.943223 -7.576649 1.240365 21.79353 7.273305 3.066392 -22.41515 8.90579 5.125391 -17.32941 10.58424 85.3098 33.20892 -17.82311 -0 0 14.32342 -12.46692 9.146181 7.911753 6.001835 -18.95947 -2.419262 -89.25347 28.28821 16.04349 0 0 -19.06695 2.300327 12.11131 11.05435
0.8316344 101.2045 7.12651 0.2809941 -0.1431879 1.936368 2.996405 -25.76405 4.571908 -0 26.60689 -0 -4.114349 -8.86429 -3.980351 -5.741579 13.75458 -17.08935 -0 0.5311302 -0 3.024007 -21.67068 19.63195 -3.377115 -1.260839 2.865737 2.713689 8.293282 -8.169379 1.144983 21.54907 7.226329 3.036873 -23.21528 8.908243 4.697791 -17.57374 10.787 86.65002 33.03504 -19.784 -0 0 13.2074 -11.78554 9.446963 7.327317 6.355333 -20.34447 -2.636714 -88.64457 27.27801 15.23986 0 0 -21.45995 4.075715 13.11227 8.864043
1.097889 99.76453 10.52876 -0.03487735 0.3391527 2.346066 3.709431 -28.10565 4.341877 -0 21.79732 -0 -5.118375 -9.343031 -3.777894 -5.360542 15.00757 -17.09852 -0 0.8155464 -0 3.670693 -21.85576 19.49534 -3.074872 -1.485004 2.730295 3.027899 8.535138 -8.572666 1.071055 21.3735 7.203764 3.014562 -23.81252 8.927012 4.384936 -17.83723 10.9264 87.5312 32.89575 -21.03953 -0 0 12.55896 -11.32102 9.633423 6.962025 6.61015 -21.29287 -2.77782 -88.32101 26.56706 14.84655 0 0 -23.02261 5.37043 13.83656 7.282852
1.284505 98.24991 13.96738 -0.2456005 0.4397264 2.663036 4.245721 -29.53187 4.138672 -0 18.38886 -0 -5.800629 -9.294178 -3.764287 -5.07556 15.89431 -16.77576 -0 2.778457 -0 3.715419 -21.66878 19.08702 -2.785477 -1.585829 2.634439 3.208318 8.771506 -8.833315 1.051757 21.30197 7.134523 2.981217 -24.05235 8.877833 4.0774 -17.84682 11.02199 88.34949 32.48389 -22.06416 -0 0 11.78049 -11.21486 9.812066 6.710513 6.737835 -22.00813 -2.961477 -87.88765 25.92515 14.23817 0 0 -24.21952 6.260864 14.17034 6.188743
1.408416 96.75594 17.54696 -0.3607912 0.2616958 2.907371 4.599005 -30.19866 3.935884 -0 16.26549 -0 -6.216435 -8.84927 -3.865211 -4.888106 16.46234 -16.24805 -0 5.639892 -0 3.372794 -21.24875 18.5393 -2.529502 -1.599363 2.570169 3.276546 8.993574 -8.971904 1.071348 21.30989 7.038862 2.941048 -24.02951 8.787804 3.782801 -17.69743 11.08068 89.0603 31.89173 -22.82893 -0 0 10.98273 -11.38498 9.969875 6.571581 6.768211 -22.51102 -3.169261 -87.4239 25.36205 13.54997 0 0 -25.05299 6.808826 14.2344 5.504843
1.480489 95.36975 21.35865 -0.3970052 -0.1345722 3.092002 4.836264 -30.24718 3.77663 -0 15.10795 -0 -6.380873 -8.143403 -4.086446 -4.773472 16.7494 -15.53096 -0 9.537059 -0 2.639128 -20.58837 17.84641 -2.295355 -1.524128 2.539414 3.260543 9.188594 -9.011788 1.125368 21.38084 6.918886 2.899425 -23.77458 8.657276 3.53226 -17.37193 11.1106 89.66089 31.20886 -23.39999 -0 0 10.14467 -11.74634 10.11903 6.4993 6.711803 -22.82236 -3.383052 -86.91956 24.89765 12.7506 0 0 -25.61799 7.017841 14.04248 5.223514
1.508641 94.16801 25.478 -0.3691248 -0.7070262 3.224936 4.996303 -29.75376 3.670111 -0 14.67662 -0 -6.327207 -7.264581 -4.414966 -4.708036 16.75854 -14.64241 -0 14.41025 -0 1.564151 -19.69077 17.03654 -2.074066 -1.369567 2.544324 3.177147 9.357916 -8.967954 1.20888 21.50171 6.774788 2.857563 -23.32221 8.488782 3.327519 -16.89325 11.11965 90.15651 30.47148 -23.80731 -0 0 9.277817 -12.25632 10.26716 6.477369 6.580615 -22.96812 -3.595486 -86.38503 24.51991 11.85936 0 0 -25.96532 6.928448 13.62765 5.295328
1.497674 93.22468 29.97056 -0.2870844 -1.428101 3.308281 5.111895 -28.72257 3.640809 -0 14.79778 -0 -6.062175 -6.305002 -4.849933 -4.667734 16.44134 -13.58618 -0 20.30014 -0 0.1603966 -18.53044 16.13205 -1.858869 -1.135672 2.594486 3.036952 9.497058 -8.845267 1.319797 21.66334 6.603931 2.817013 -22.68669 8.280313 3.180079 -16.27027 11.11309 90.53134 29.72108 -24.05682 -0 0 8.402473 -12.88221 10.42207 6.49446 6.378289 -22.951 -3.793949 -85.83241 24.2341 10.89507 0 0 -26.11634 6.546762 12.99113 5.713536
1.45098 92.61159 34.8927 -0.1584231 -2.279892 3.338424 5.203131 -27.0843 3.70885 -0 15.33983 -0 -5.586754 -5.360215 -5.384965 -4.622605 15.69061 -12.36064 -0 27.21734 -0 -1.556676 -17.0684 15.17055 -1.644861 -0.8216749 2.706436 2.844009 9.602919 -8.639393 1.456878 21.85822 6.400939 2.777839 -21.87556 8.027819 3.097372 -15.52421 11.09531 90.75307 28.99041 -24.12122 -0 0 7.56633 -13.60839 10.59117 6.553671 6.104497 -22.76124 -3.964366 -85.28786 24.04604 9.906155 0 0 -26.05709 5.872503 12.12574 6.48051
1.372474 92.39311 40.28479 0.007171838 -3.234463 3.304936 5.283179 -24.70514 3.896417 -0 16.15691 -0 -4.905506 -4.574557 -5.995608 -4.527053 14.32237 -10.97587 -0 35.05266 -0 -3.546505 -15.26708 14.2218 -1.430465 -0.4300898 2.907049 2.600906 9.670627 -8.33938 1.617138 22.07505 6.159345 2.738966 -20.90427 7.727443 3.087611 -14.70438 11.07148 90.75907 28.32664 -23.93277 -0 0 6.869375 -14.41787 10.78142 6.67051 5.758615 -22.37709 -4.083995 -84.80636 23.96975 8.99787 0 0 -25.73852 4.90552 11.02713 7.600311
1.269721 92.60645 46.15282 0.1902502 -4.228718 3.188414 5.359215 -21.41608 4.217528 -0 17.01254 -0 -4.05828 -4.176757 -6.609903 -4.309268 12.07216 -9.479562 -0 43.36211 -0 -5.689145 -13.13072 13.41124 -1.218824 0.02046687 3.233847 2.314796 9.697014 -7.933543 1.791043 22.29123 5.874596 2.696599 -19.82516 7.380913 3.151752 -13.92541 11.05091 90.45245 27.79877 -23.37542 -0 0 6.497932 -15.27789 10.99772 6.876429 5.348288 -21.77899 -4.119088 -84.49448 24.0194 8.379981 0 0 -25.07913 3.679231 9.73034 9.038112
1.15859 93.22352 52.43964 0.3539887 -5.138727 2.958819 5.431571 -17.09192 4.657224 -0 17.51718 -0 -3.161741 -4.482688 -7.075238 -3.873588 8.643887 -7.98446 -0 51.09886 -0 -7.722478 -10.7717 12.92663 -1.019664 0.4778196 3.727407 2.00452 9.687792 -7.420655 1.956669 22.46611 5.549973 2.64174 -18.76306 7.004045 3.268583 -13.40547 11.05082 89.71584 27.48907 -22.29236 -0 0 6.742072 -16.12692 11.23862 7.219923 4.901396 -20.97654 -4.029507 -84.52837 24.18887 8.403127 0 0 -23.98271 2.304964 8.365612 10.66352
1.068077 94.10578 59.00303 0.4467936 -5.790354 2.580442 5.490611 -11.79725 5.13696 -0 17.18915 -0 -2.42847 -5.774291 -7.163579 -3.141816 3.877958 -6.663645 -0 56.53607 -0 -9.22389 -8.46634 12.96808 -0.8480439 0.8455253 4.405508 1.701329 9.670849 -6.824881 2.078694 22.54617 5.203399 2.558301 -17.92528 6.634261 3.371552 -13.45671 11.09646 88.47785 27.43316 -20.54352 -0 0 7.925948 -16.88955 11.4895 7.759197 4.474818 -20.04782 -3.793881 -85.12636 24.40526 9.500952 0 0 -22.389 1.006664 7.205146 12.20128
1.039532 95.00017 65.63629 0.4295212 -6.051468 2.031163 5.517106 -5.919836 5.504653 -0 15.76983 -0 -2.087208 -8.028482 -6.686735 -2.135999 -1.984776 -5.67699 -0 57.89152 -0 -9.752539 -6.591963 13.62408 -0.717585 1.011093 5.224041 1.433118 9.700656 -6.200717 2.123071 22.49565 4.867588 2.428676 -17.52225 6.324138 3.34789 -14.34271 11.20724 86.83091 27.52732 -18.13459 -0 0 10.18926 -17.53439 11.71833 8.533742 4.141458 -19.14957 -3.449442 -86.41955 24.49329 11.93175 0 0 -20.34915 0.07437341 6.596848 13.28447
